<svg xmlns="http://www.w3.org/2000/svg" width="1200" height="630" viewBox="0 0 1200 630">
  <defs>
    <linearGradient id="bg" x1="0" y1="0" x2="1" y2="1">
      <stop offset="0" stop-color="#0A1628"/>
      <stop offset="1" stop-color="#12203A"/>
    </linearGradient>
    <linearGradient id="mark" x1="20" y1="100" x2="180" y2="100" gradientUnits="userSpaceOnUse">
      <stop stop-color="#1D4ED8"/><stop offset="1" stop-color="#38BDF8"/>
    </linearGradient>
  </defs>

  <rect width="1200" height="630" fill="url(#bg)"/>
  <rect x="0" y="0" width="1200" height="5" fill="#38BDF8"/>

  <g transform="translate(72,64) scale(0.26)">
    <path d="M50 150 L150 150 L180 120 L180 80 L150 50 L50 50 L20 80 L20 120 Z" stroke="url(#mark)" stroke-width="10" stroke-linecap="round" stroke-linejoin="round" fill="rgba(29,78,216,0.10)"/>
    <path d="M100 50 V150 M50 100 H150" stroke="#22C55E" stroke-width="5" stroke-linecap="round" opacity="0.9"/>
    <circle cx="100" cy="100" r="15" fill="#22C55E"/>
    <circle cx="50" cy="100" r="6" fill="#22C55E"/><circle cx="150" cy="100" r="6" fill="#22C55E"/>
    <circle cx="100" cy="50" r="6" fill="#22C55E"/><circle cx="100" cy="150" r="6" fill="#22C55E"/>
  </g>
  <text x="128" y="98" font-family="Archivo, Helvetica, Arial, sans-serif" font-size="27" font-weight="700" fill="#FFFFFF" letter-spacing="-0.6">Next Scale <tspan fill="#93A6C2" font-weight="500">Digital</tspan></text>

  <text x="72" y="212" font-family="IBM Plex Mono, monospace" font-size="17" fill="#38BDF8" letter-spacing="2.4">LOCAL SEARCH · TORONTO &amp; YORK REGION</text>

  <text x="72" y="286" font-family="Archivo, Helvetica, Arial, sans-serif" font-size="52" font-weight="700" fill="#FFFFFF" letter-spacing="-1.6">You don’t have one</text>
  <text x="72" y="346" font-family="Archivo, Helvetica, Arial, sans-serif" font-size="52" font-weight="700" fill="#FFFFFF" letter-spacing="-1.6">Google ranking.</text>
  <text x="72" y="406" font-family="Archivo, Helvetica, Arial, sans-serif" font-size="52" font-weight="700" fill="#38BDF8" letter-spacing="-1.6">You have twenty-five.</text>

  <text x="72" y="470" font-family="IBM Plex Sans, Helvetica, Arial, sans-serif" font-size="21" fill="#93A6C2">Websites, local SEO and Google Ads</text>
  <text x="72" y="500" font-family="IBM Plex Sans, Helvetica, Arial, sans-serif" font-size="21" fill="#93A6C2">for GTA service businesses.</text>

  <text x="72" y="566" font-family="IBM Plex Mono, monospace" font-size="18" fill="#55688A">nextscaledigital.com</text>

  <rect x="700" y="168" width="62" height="62" rx="4" fill="rgba(255,255,255,0.03)" stroke="#23375C" stroke-width="1.2"/><text x="731" y="206" font-family="IBM Plex Mono, monospace" font-size="20" fill="#55688A" text-anchor="middle">—</text><rect x="769" y="168" width="62" height="62" rx="4" fill="rgba(220,38,38,0.14)" stroke="rgba(220,38,38,0.40)" stroke-width="1.2"/><text x="800" y="206" font-family="IBM Plex Mono, monospace" font-size="20" fill="#F79191" text-anchor="middle">12</text><rect x="838" y="168" width="62" height="62" rx="4" fill="rgba(249,115,22,0.16)" stroke="rgba(249,115,22,0.45)" stroke-width="1.2"/><text x="869" y="206" font-family="IBM Plex Mono, monospace" font-size="20" fill="#FBB874" text-anchor="middle">8</text><rect x="907" y="168" width="62" height="62" rx="4" fill="rgba(220,38,38,0.14)" stroke="rgba(220,38,38,0.40)" stroke-width="1.2"/><text x="938" y="206" font-family="IBM Plex Mono, monospace" font-size="20" fill="#F79191" text-anchor="middle">14</text><rect x="976" y="168" width="62" height="62" rx="4" fill="rgba(255,255,255,0.03)" stroke="#23375C" stroke-width="1.2"/><text x="1007" y="206" font-family="IBM Plex Mono, monospace" font-size="20" fill="#55688A" text-anchor="middle">—</text><rect x="700" y="237" width="62" height="62" rx="4" fill="rgba(249,115,22,0.16)" stroke="rgba(249,115,22,0.45)" stroke-width="1.2"/><text x="731" y="275" font-family="IBM Plex Mono, monospace" font-size="20" fill="#FBB874" text-anchor="middle">9</text><rect x="769" y="237" width="62" height="62" rx="4" fill="rgba(249,115,22,0.16)" stroke="rgba(249,115,22,0.45)" stroke-width="1.2"/><text x="800" y="275" font-family="IBM Plex Mono, monospace" font-size="20" fill="#FBB874" text-anchor="middle">4</text><rect x="838" y="237" width="62" height="62" rx="4" fill="rgba(34,197,94,0.20)" stroke="rgba(34,197,94,0.55)" stroke-width="1.2"/><text x="869" y="275" font-family="IBM Plex Mono, monospace" font-size="20" fill="#6EE7A0" text-anchor="middle">2</text><rect x="907" y="237" width="62" height="62" rx="4" fill="rgba(249,115,22,0.16)" stroke="rgba(249,115,22,0.45)" stroke-width="1.2"/><text x="938" y="275" font-family="IBM Plex Mono, monospace" font-size="20" fill="#FBB874" text-anchor="middle">6</text><rect x="976" y="237" width="62" height="62" rx="4" fill="rgba(220,38,38,0.14)" stroke="rgba(220,38,38,0.40)" stroke-width="1.2"/><text x="1007" y="275" font-family="IBM Plex Mono, monospace" font-size="20" fill="#F79191" text-anchor="middle">11</text><rect x="700" y="306" width="62" height="62" rx="4" fill="rgba(249,115,22,0.16)" stroke="rgba(249,115,22,0.45)" stroke-width="1.2"/><text x="731" y="344" font-family="IBM Plex Mono, monospace" font-size="20" fill="#FBB874" text-anchor="middle">7</text><rect x="769" y="306" width="62" height="62" rx="4" fill="rgba(34,197,94,0.20)" stroke="rgba(34,197,94,0.55)" stroke-width="1.2"/><text x="800" y="344" font-family="IBM Plex Mono, monospace" font-size="20" fill="#6EE7A0" text-anchor="middle">2</text><rect x="838" y="306" width="62" height="62" rx="4" fill="rgba(34,197,94,0.20)" stroke="rgba(34,197,94,0.55)" stroke-width="1.2"/><text x="869" y="344" font-family="IBM Plex Mono, monospace" font-size="20" fill="#6EE7A0" text-anchor="middle">1</text><rect x="907" y="306" width="62" height="62" rx="4" fill="rgba(34,197,94,0.20)" stroke="rgba(34,197,94,0.55)" stroke-width="1.2"/><text x="938" y="344" font-family="IBM Plex Mono, monospace" font-size="20" fill="#6EE7A0" text-anchor="middle">3</text><rect x="976" y="306" width="62" height="62" rx="4" fill="rgba(249,115,22,0.16)" stroke="rgba(249,115,22,0.45)" stroke-width="1.2"/><text x="1007" y="344" font-family="IBM Plex Mono, monospace" font-size="20" fill="#FBB874" text-anchor="middle">8</text><rect x="700" y="375" width="62" height="62" rx="4" fill="rgba(249,115,22,0.16)" stroke="rgba(249,115,22,0.45)" stroke-width="1.2"/><text x="731" y="413" font-family="IBM Plex Mono, monospace" font-size="20" fill="#FBB874" text-anchor="middle">10</text><rect x="769" y="375" width="62" height="62" rx="4" fill="rgba(249,115,22,0.16)" stroke="rgba(249,115,22,0.45)" stroke-width="1.2"/><text x="800" y="413" font-family="IBM Plex Mono, monospace" font-size="20" fill="#FBB874" text-anchor="middle">5</text><rect x="838" y="375" width="62" height="62" rx="4" fill="rgba(34,197,94,0.20)" stroke="rgba(34,197,94,0.55)" stroke-width="1.2"/><text x="869" y="413" font-family="IBM Plex Mono, monospace" font-size="20" fill="#6EE7A0" text-anchor="middle">3</text><rect x="907" y="375" width="62" height="62" rx="4" fill="rgba(249,115,22,0.16)" stroke="rgba(249,115,22,0.45)" stroke-width="1.2"/><text x="938" y="413" font-family="IBM Plex Mono, monospace" font-size="20" fill="#FBB874" text-anchor="middle">5</text><rect x="976" y="375" width="62" height="62" rx="4" fill="rgba(220,38,38,0.14)" stroke="rgba(220,38,38,0.40)" stroke-width="1.2"/><text x="1007" y="413" font-family="IBM Plex Mono, monospace" font-size="20" fill="#F79191" text-anchor="middle">13</text><rect x="700" y="444" width="62" height="62" rx="4" fill="rgba(255,255,255,0.03)" stroke="#23375C" stroke-width="1.2"/><text x="731" y="482" font-family="IBM Plex Mono, monospace" font-size="20" fill="#55688A" text-anchor="middle">—</text><rect x="769" y="444" width="62" height="62" rx="4" fill="rgba(220,38,38,0.14)" stroke="rgba(220,38,38,0.40)" stroke-width="1.2"/><text x="800" y="482" font-family="IBM Plex Mono, monospace" font-size="20" fill="#F79191" text-anchor="middle">11</text><rect x="838" y="444" width="62" height="62" rx="4" fill="rgba(249,115,22,0.16)" stroke="rgba(249,115,22,0.45)" stroke-width="1.2"/><text x="869" y="482" font-family="IBM Plex Mono, monospace" font-size="20" fill="#FBB874" text-anchor="middle">7</text><rect x="907" y="444" width="62" height="62" rx="4" fill="rgba(249,115,22,0.16)" stroke="rgba(249,115,22,0.45)" stroke-width="1.2"/><text x="938" y="482" font-family="IBM Plex Mono, monospace" font-size="20" fill="#FBB874" text-anchor="middle">9</text><rect x="976" y="444" width="62" height="62" rx="4" fill="rgba(255,255,255,0.03)" stroke="#23375C" stroke-width="1.2"/><text x="1007" y="482" font-family="IBM Plex Mono, monospace" font-size="20" fill="#55688A" text-anchor="middle">—</text>

  <text x="700" y="146" font-family="IBM Plex Mono, monospace" font-size="14" fill="#55688A" letter-spacing="1.8">MAP POSITION BY SEARCH LOCATION</text>

  <g transform="translate(700, 539)">
    <rect x="0" y="0" width="12" height="12" rx="2" fill="rgba(34,197,94,0.35)" stroke="#22C55E" stroke-width="1"/>
    <text x="20" y="11" font-family="IBM Plex Mono, monospace" font-size="14" fill="#93A6C2">Top 3</text>
    <rect x="95" y="0" width="12" height="12" rx="2" fill="rgba(249,115,22,0.32)" stroke="#F97316" stroke-width="1"/>
    <text x="115" y="11" font-family="IBM Plex Mono, monospace" font-size="14" fill="#93A6C2">4–10</text>
    <rect x="190" y="0" width="12" height="12" rx="2" fill="rgba(220,38,38,0.28)" stroke="#DC2626" stroke-width="1"/>
    <text x="210" y="11" font-family="IBM Plex Mono, monospace" font-size="14" fill="#93A6C2">11+</text>
  </g>
</svg>